<?xml version="1.0" encoding="UTF-8"?>
<svg id="Calque_2" xmlns="http://www.w3.org/2000/svg" xmlns:xlink="http://www.w3.org/1999/xlink" viewBox="0 0 85.9 59.6">
  <defs>
    <style>
      .cls-1 {
        fill: url(#Dégradé_sans_nom_385);
      }
    </style>
    <linearGradient id="Dégradé_sans_nom_385" data-name="Dégradé sans nom 385" x1="0" y1="29.8" x2="85.9" y2="29.8" gradientUnits="userSpaceOnUse">
      <stop offset="0" stop-color="#04588c"/>
      <stop offset="1" stop-color="#009580"/>
    </linearGradient>
  </defs>
  <g id="Calque_1-2" data-name="Calque_1">
    <path class="cls-1" d="M41.65,0s.51.12.51.5c-2.37,1.68-4.6,5.49-4.46,11.97.14,6.48,3.6,9.48,3.6,15.9,0,6.86-4.07,12.97-17.18,18.95-.03-.25,0-.44,0-.81,4.56-2.81,8.41-8.51,8.11-14.12-.3-5.61-3.07-7.76-3.55-15.9-.91-11.51,9.29-15.05,12.98-16.48M47.41,48.83c-.65.59-5.25,4.56-13.28,5.66-8.73,1.19-16.77.95-22.12-6.6-5.33-7.54-2-16.55,2.97-20.82,5.46-4.71,10.42-6.03,10.42-6.03v-.69c-6.15,2.62-11.08,4.22-15.69,6.89-4.59,2.69-14.22,13.69-7.26,24.9,6.96,11.23,23.9,7.27,32.54,4.22,7.63-2.7,11.41-5.62,13.09-7.01l-.67-.52ZM40.59,46.81c.16.18.22.26.4.37,1.66-.72,2.83-1.25,3.93-1.37,1.19-.13,2.8,1.49,4.53,1.5,1.73.01,3.21-.38,4.69-1.02,1.36-.59,26.52-9.57,31.76-11.53,0-.09,0-.17,0-.22-10.09,3.46-25.47,8.18-26.35,8.34-.88.16-2.99.48-4.08-.41-1.49-1.35-3.57-1.35-5.01-.83-1.43.53-8.82,4.43-9.87,5.17"/>
  </g>
</svg>